<svg width="24" height="24" viewBox="0 0 24 24" fill="none" xmlns="http://www.w3.org/2000/svg">
<path d="M12 4C12.2761 4 12.5 3.77614 12.5 3.5C12.5 3.22386 12.2761 3 12 3C11.7239 3 11.5 3.22386 11.5 3.5C11.5 3.77614 11.7239 4 12 4Z" stroke="black" stroke-width="1.5" stroke-linecap="round" stroke-linejoin="round"/>
<path d="M7.75 5.14001C8.02614 5.14001 8.25 4.91616 8.25 4.64001C8.25 4.36387 8.02614 4.14001 7.75 4.14001C7.47386 4.14001 7.25 4.36387 7.25 4.64001C7.25 4.91616 7.47386 5.14001 7.75 5.14001Z" stroke="black" stroke-width="1.5" stroke-linecap="round" stroke-linejoin="round"/>
<path d="M4.64001 8.25C4.91616 8.25 5.14001 8.02614 5.14001 7.75C5.14001 7.47386 4.91616 7.25 4.64001 7.25C4.36387 7.25 4.14001 7.47386 4.14001 7.75C4.14001 8.02614 4.36387 8.25 4.64001 8.25Z" stroke="black" stroke-width="1.5" stroke-linecap="round" stroke-linejoin="round"/>
<path d="M3.5 12.5C3.77614 12.5 4 12.2761 4 12C4 11.7239 3.77614 11.5 3.5 11.5C3.22386 11.5 3 11.7239 3 12C3 12.2761 3.22386 12.5 3.5 12.5Z" stroke="black" stroke-width="1.5" stroke-linecap="round" stroke-linejoin="round"/>
<path d="M12 21C12.2761 21 12.5 20.7761 12.5 20.5C12.5 20.2239 12.2761 20 12 20C11.7239 20 11.5 20.2239 11.5 20.5C11.5 20.7761 11.7239 21 12 21Z" stroke="black" stroke-width="1.5" stroke-linecap="round" stroke-linejoin="round"/>
<path d="M16.25 19.86C16.5261 19.86 16.75 19.6361 16.75 19.36C16.75 19.0838 16.5261 18.86 16.25 18.86C15.9739 18.86 15.75 19.0838 15.75 19.36C15.75 19.6361 15.9739 19.86 16.25 19.86Z" stroke="black" stroke-width="1.5" stroke-linecap="round" stroke-linejoin="round"/>
<path d="M19.36 16.75C19.6361 16.75 19.86 16.5261 19.86 16.25C19.86 15.9739 19.6361 15.75 19.36 15.75C19.0838 15.75 18.86 15.9739 18.86 16.25C18.86 16.5261 19.0838 16.75 19.36 16.75Z" stroke="black" stroke-width="1.5" stroke-linecap="round" stroke-linejoin="round"/>
<path d="M20.5 12.5C20.7761 12.5 21 12.2761 21 12C21 11.7239 20.7761 11.5 20.5 11.5C20.2239 11.5 20 11.7239 20 12C20 12.2761 20.2239 12.5 20.5 12.5Z" stroke="black" stroke-width="1.5" stroke-linecap="round" stroke-linejoin="round"/>
<path d="M4.64001 16.75C4.91616 16.75 5.14001 16.5261 5.14001 16.25C5.14001 15.9739 4.91616 15.75 4.64001 15.75C4.36387 15.75 4.14001 15.9739 4.14001 16.25C4.14001 16.5261 4.36387 16.75 4.64001 16.75Z" stroke="black" stroke-width="1.5" stroke-linecap="round" stroke-linejoin="round"/>
<path d="M19.36 8.25C19.6361 8.25 19.86 8.02614 19.86 7.75C19.86 7.47386 19.6361 7.25 19.36 7.25C19.0838 7.25 18.86 7.47386 18.86 7.75C18.86 8.02614 19.0838 8.25 19.36 8.25Z" stroke="black" stroke-width="1.5" stroke-linecap="round" stroke-linejoin="round"/>
<path d="M7.75 19.86C8.02614 19.86 8.25 19.6361 8.25 19.36C8.25 19.0838 8.02614 18.86 7.75 18.86C7.47386 18.86 7.25 19.0838 7.25 19.36C7.25 19.6361 7.47386 19.86 7.75 19.86Z" stroke="black" stroke-width="1.5" stroke-linecap="round" stroke-linejoin="round"/>
<path d="M16.25 5.14001C16.5261 5.14001 16.75 4.91616 16.75 4.64001C16.75 4.36387 16.5261 4.14001 16.25 4.14001C15.9739 4.14001 15.75 4.36387 15.75 4.64001C15.75 4.91616 15.9739 5.14001 16.25 5.14001Z" stroke="black" stroke-width="1.5" stroke-linecap="round" stroke-linejoin="round"/>
</svg>
