<svg width="24" height="24" viewBox="0 0 24 24" fill="none" xmlns="http://www.w3.org/2000/svg">
<path d="M2 12.8601C3.34 12.6101 3.48 11.1001 5.06 11.1001C6.79 11.1001 6.79 12.9001 8.53 12.9001C10.26 12.9001 10.26 11.1001 11.99 11.1001C13.72 11.1001 13.72 12.9001 15.46 12.9001C17.19 12.9001 17.19 11.1001 18.93 11.1001C20.52 11.1001 20.65 12.6101 22 12.8601" stroke="black" stroke-width="1.5" stroke-linecap="round" stroke-linejoin="round"/>
<path d="M2 17.96C3.34 17.71 3.48 16.2 5.06 16.2C6.79 16.2 6.79 18 8.53 18C10.26 18 10.26 16.2 11.99 16.2C13.72 16.2 13.72 18 15.46 18C17.19 18 17.19 16.2 18.93 16.2C20.52 16.2 20.65 17.71 22 17.96" stroke="black" stroke-width="1.5" stroke-linecap="round" stroke-linejoin="round"/>
<path d="M2 7.76C3.34 7.51 3.48 6 5.06 6C6.79 6 6.79 7.8 8.53 7.8C10.26 7.8 10.26 6 11.99 6C13.72 6 13.72 7.8 15.46 7.8C17.19 7.8 17.19 6 18.93 6C20.52 6 20.65 7.51 22 7.76" stroke="black" stroke-width="1.5" stroke-linecap="round" stroke-linejoin="round"/>
</svg>
