<svg width="24"
    height="24"
    viewBox="0 0 24 24"
    fill="none"
    xmlns="http://www.w3.org/2000/svg">
    <path
        d="M18.1 5.7C17.3 3.6 15.2 2 12.7 2C9.5 2 6.9 4.5 6.9 7.7C6.9 7.8 6.9 7.9 6.9 8C6.4 7.7 5.9 7.6 5.3 7.6C3.5 7.5 2 9 2 10.8C2 12.6 3.5 14 5.3 14H17.9C20.2 14 22 12 22 9.8C22 7.6 20.3 5.9 18.1 5.7Z"
        stroke="black"
        stroke-width="1.5"
        stroke-miterlimit="10"
        stroke-linecap="round"
        stroke-linejoin="round" />
    <path
        d="M5 22L7 18"
        stroke="black"
        stroke-width="1.5"
        stroke-miterlimit="10"
        stroke-linecap="round"
        stroke-linejoin="round" />
    <path
        d="M10 22L12 18"
        stroke="black"
        stroke-width="1.5"
        stroke-miterlimit="10"
        stroke-linecap="round"
        stroke-linejoin="round" />
    <path
        d="M15 22L17 18"
        stroke="black"
        stroke-width="1.5"
        stroke-miterlimit="10"
        stroke-linecap="round"
        stroke-linejoin="round" />
</svg>
