<svg width="24" height="24" viewBox="0 0 24 24" fill="none" xmlns="http://www.w3.org/2000/svg">
<path d="M13.0024 4H21.0024" stroke="black" stroke-width="1.5" stroke-miterlimit="10" stroke-linecap="round" stroke-linejoin="round"/>
<path d="M13.0024 11.9963H21.0024" stroke="black" stroke-width="1.5" stroke-miterlimit="10" stroke-linecap="round" stroke-linejoin="round"/>
<path d="M13.0024 7.9978H16.0024" stroke="black" stroke-width="1.5" stroke-miterlimit="10" stroke-linecap="round" stroke-linejoin="round"/>
<path d="M9.00244 14.5954V3.99927C9.00244 2.89967 8.10244 2 7.00244 2C5.90244 2 5.00244 2.89967 5.00244 3.99927V14.5954C3.50244 15.3951 2.70244 17.1944 3.10244 18.9938C3.40244 20.3933 4.60244 21.5928 6.00244 21.8927C8.60244 22.4925 11.0024 20.4932 11.0024 17.9941C11.0024 16.4947 10.2024 15.1952 9.00244 14.5954Z" stroke="black" stroke-width="1.5" stroke-miterlimit="10" stroke-linecap="round" stroke-linejoin="round"/>
<path d="M7.00244 18.4943C7.27858 18.4943 7.50244 18.2705 7.50244 17.9943C7.50244 17.7182 7.27858 17.4943 7.00244 17.4943C6.7263 17.4943 6.50244 17.7182 6.50244 17.9943C6.50244 18.2705 6.7263 18.4943 7.00244 18.4943Z" stroke="black" stroke-width="1.5" stroke-miterlimit="10" stroke-linecap="round" stroke-linejoin="round"/>
</svg>
