<svg width="24" height="24" viewBox="0 0 24 24" fill="none" xmlns="http://www.w3.org/2000/svg">
<path d="M2 8.99995H9.60001" stroke="black" stroke-width="1.5" stroke-miterlimit="10" stroke-linecap="round" stroke-linejoin="round"/>
<path d="M7.39999 5.45833C7.79999 4.625 8.6 4 9.6 4C10.9 4 12 5.14583 12 6.5C12 7.85417 10.9 9 9.6 9" stroke="black" stroke-width="1.5" stroke-miterlimit="10" stroke-linecap="round" stroke-linejoin="round"/>
<path d="M2 15H12.7391" stroke="black" stroke-width="1.5" stroke-miterlimit="10" stroke-linecap="round" stroke-linejoin="round"/>
<path d="M10.6667 18.5417C11.0435 19.375 11.7971 20 12.7391 20C13.9638 20 15 18.8542 15 17.5C15 16.1458 13.9638 15 12.7391 15" stroke="black" stroke-width="1.5" stroke-miterlimit="10" stroke-linecap="round" stroke-linejoin="round"/>
<path d="M8 12H18.6207" stroke="black" stroke-width="1.5" stroke-miterlimit="10" stroke-linecap="round" stroke-linejoin="round"/>
<path d="M15.531 7C16.1103 5.8 17.269 5 18.6207 5C20.4552 5 22 6.6 22 8.5C22 10.4 20.4552 12 18.6207 12" stroke="black" stroke-width="1.5" stroke-miterlimit="10" stroke-linecap="round" stroke-linejoin="round"/>
</svg>
