<svg width="11" height="118" viewBox="0 0 11 118" fill="none" xmlns="http://www.w3.org/2000/svg">
<path d="M10.2249 10.0861C10.3574 10.339 10.0952 10.6163 9.83526 10.4982L6.13019 8.8146L6.13019 27.8595L4.13019 27.8595L4.13019 8.8146L0.42511 10.4982C0.165256 10.616 -0.0969283 10.3389 0.0354617 10.0861L4.86456 0.867332C4.97686 0.652941 5.2835 0.652953 5.39581 0.867332L10.2249 10.0861ZM9.13019 113.86C9.13004 116.069 7.33923 117.86 5.13019 117.86C2.92118 117.859 1.13034 116.068 1.13019 113.86C1.13019 111.996 2.40504 110.43 4.13019 109.985L4.13019 90.8595H6.13019L6.13019 109.985C7.85542 110.43 9.13019 111.996 9.13019 113.86ZM7.13019 113.86C7.13019 112.755 6.23476 111.86 5.13019 111.86C4.02566 111.86 3.13019 112.755 3.13019 113.86C3.13034 114.964 4.02575 115.859 5.13019 115.86C6.23466 115.86 7.13004 114.964 7.13019 113.86Z" fill="white"/>
</svg>
