<svg width="118" height="118" viewBox="0 0 118 118" fill="none" xmlns="http://www.w3.org/2000/svg">
<path fill-rule="evenodd" clip-rule="evenodd" d="M113.998 59.483L117.998 59.5174C117.999 59.3451 118 59.1726 118 59C118 58.8274 117.999 58.6549 117.998 58.4826L113.998 58.517L109.998 58.5513C109.999 58.7007 110 58.8503 110 59C110 59.1497 109.999 59.2993 109.998 59.4487L113.998 59.483ZM113.75 53.7212L117.732 53.3424C117.7 52.9999 117.664 52.6582 117.626 52.3174L113.651 52.7655L109.676 53.2136C109.709 53.5083 109.74 53.8038 109.768 54.1001L113.75 53.7212ZM112.906 48.0272L116.827 47.2338C116.758 46.8963 116.687 46.5599 116.613 46.2245L112.707 47.0868L108.801 47.949C108.865 48.2386 108.927 48.5292 108.986 48.8206L112.906 48.0272ZM114.966 40.2721C115.075 40.5978 115.181 40.9248 115.284 41.253L111.469 42.4548L107.654 43.6566C107.565 43.3733 107.473 43.091 107.379 42.8098L111.172 41.541L114.966 40.2721ZM109.453 37.0644L113.12 35.4676C112.983 35.1525 112.843 34.8388 112.701 34.5266L109.062 36.1876L105.423 37.8487C105.546 38.1183 105.667 38.3892 105.785 38.6613L109.453 37.0644ZM106.88 31.915L110.36 29.9422C110.191 29.6434 110.019 29.3463 109.844 29.0509L106.4 31.0843L102.955 33.1176C103.106 33.373 103.254 33.6298 103.401 33.8879L106.88 31.915ZM103.782 27.0618L107.037 24.7363C106.837 24.457 106.635 24.1795 106.431 23.9039L103.217 26.2857L100.004 28.6674C100.181 28.9058 100.355 29.1458 100.528 29.3874L103.782 27.0618ZM100.194 22.5568L103.189 19.9052C102.962 19.6482 102.732 19.3932 102.5 19.1402L99.5514 21.8433L96.603 24.5464C96.8037 24.7653 97.0025 24.986 97.1994 25.2083L100.194 22.5568ZM96.1567 18.4486L98.8598 15.5002C98.6068 15.2682 98.3518 15.0385 98.0948 14.8109L95.4432 17.8058L92.7916 20.8006C93.014 20.9975 93.2347 21.1963 93.4536 21.397L96.1567 18.4486ZM91.7143 14.7825L94.0961 11.5689C93.8205 11.3647 93.543 11.1627 93.2637 10.9631L90.9382 14.2177L88.6126 17.4722C88.8542 17.6448 89.0942 17.8194 89.3325 17.9961L91.7143 14.7825ZM86.9157 11.6002L88.9491 8.1556C88.6537 7.98119 88.3566 7.80929 88.0578 7.63992L86.085 11.1195L84.1121 14.5991C84.3702 14.7455 84.627 14.8941 84.8824 15.0448L86.9157 11.6002ZM81.8124 8.93825L83.4734 5.29943C83.1612 5.15692 82.8475 5.01705 82.5324 4.87985L80.9356 8.54727L79.3387 12.2147C79.6108 12.3332 79.8817 12.454 80.1513 12.5771L81.8124 8.93825ZM76.459 6.82774L77.7278 3.03431C77.4022 2.92538 77.0752 2.81921 76.747 2.71583L75.5452 6.53101L74.3434 10.3462C74.6267 10.4355 74.909 10.5271 75.1902 10.6212L76.459 6.82774ZM70.9132 5.29283L71.7755 1.38687C71.4401 1.31284 71.1037 1.24166 70.7662 1.17336L69.9728 5.09388L69.1794 9.0144C69.4708 9.07339 69.7614 9.13486 70.051 9.19879L70.9132 5.29283ZM65.2345 4.3491L65.6826 0.374275C65.3418 0.335855 65.0001 0.300338 64.6576 0.26775L64.2788 4.24977L63.8999 8.23179C64.1962 8.25998 64.4917 8.2907 64.7864 8.32392L65.2345 4.3491ZM59.483 4.00207L59.5174 0.0022213C59.3451 0.000741436 59.1726 0 59 0C58.8274 0 58.6549 0.000741425 58.4826 0.00222126L58.517 4.00207L58.5513 8.00193C58.7007 8.00064 58.8503 8 59 8C59.1497 8 59.2993 8.00064 59.4487 8.00193L59.483 4.00207ZM52.3174 0.374276C52.6582 0.335856 52.9999 0.300339 53.3424 0.267751L53.7212 4.24977L54.1001 8.23179C53.8038 8.25998 53.5083 8.2907 53.2136 8.32392L52.7655 4.3491L52.3174 0.374276ZM48.0272 5.09388L47.2338 1.17337C46.8963 1.24166 46.5599 1.31284 46.2245 1.38687L47.0868 5.29283L47.949 9.19879C48.2386 9.13486 48.5292 9.07339 48.8206 9.0144L48.0272 5.09388ZM42.4548 6.53102L41.253 2.71583C40.9248 2.81921 40.5978 2.92538 40.2721 3.03432L41.541 6.82774L42.8098 10.6212C43.091 10.5271 43.3733 10.4355 43.6566 10.3462L42.4548 6.53102ZM37.0644 8.54727L35.4676 4.87985C35.1525 5.01705 34.8388 5.15692 34.5266 5.29943L36.1876 8.93825L37.8487 12.5771C38.1183 12.454 38.3892 12.3332 38.6613 12.2147L37.0644 8.54727ZM31.915 11.1195L29.9422 7.63992C29.6434 7.80929 29.3463 7.9812 29.0509 8.1556L31.0843 11.6002L33.1176 15.0448C33.373 14.8941 33.6298 14.7455 33.8879 14.5991L31.915 11.1195ZM27.0618 14.2177L24.7363 10.9631C24.457 11.1627 24.1795 11.3647 23.9039 11.5689L26.2857 14.7825L28.6674 17.9961C28.9058 17.8194 29.1458 17.6448 29.3874 17.4722L27.0618 14.2177ZM22.5568 17.8058L19.9052 14.8109C19.6482 15.0385 19.3932 15.2682 19.1402 15.5002L21.8433 18.4486L24.5464 21.397C24.7653 21.1963 24.986 20.9975 25.2083 20.8006L22.5568 17.8058ZM18.4486 21.8433L15.5002 19.1402C15.2682 19.3932 15.0385 19.6482 14.8109 19.9052L17.8058 22.5568L20.8006 25.2084C20.9975 24.986 21.1963 24.7653 21.397 24.5464L18.4486 21.8433ZM14.7825 26.2857L11.5689 23.9039C11.3646 24.1795 11.1627 24.457 10.9631 24.7363L14.2177 27.0618L17.4722 29.3874C17.6448 29.1458 17.8194 28.9058 17.9961 28.6675L14.7825 26.2857ZM11.6002 31.0843L8.1556 29.0509C7.98119 29.3463 7.80929 29.6434 7.63992 29.9422L11.1195 31.915L14.5991 33.8879C14.7455 33.6298 14.8941 33.373 15.0448 33.1176L11.6002 31.0843ZM8.93825 36.1876L5.29943 34.5266C5.15692 34.8388 5.01705 35.1525 4.87985 35.4676L8.54727 37.0644L12.2147 38.6613C12.3332 38.3892 12.454 38.1183 12.5771 37.8487L8.93825 36.1876ZM6.82774 41.541L3.03431 40.2722C2.92538 40.5978 2.81921 40.9248 2.71583 41.253L6.53101 42.4548L10.3462 43.6566C10.4355 43.3733 10.5271 43.091 10.6212 42.8098L6.82774 41.541ZM5.29283 47.0868L1.38687 46.2245C1.31284 46.5599 1.24166 46.8963 1.17336 47.2338L5.09388 48.0272L9.0144 48.8206C9.07339 48.5292 9.13486 48.2386 9.19879 47.949L5.29283 47.0868ZM4.3491 52.7655L0.374276 52.3174C0.335855 52.6582 0.300339 52.9999 0.26775 53.3424L4.24977 53.7212L8.23179 54.1001C8.25998 53.8038 8.2907 53.5083 8.32392 53.2136L4.3491 52.7655ZM0 59C0 58.8274 0.000741436 58.6549 0.0022213 58.4826L4.00207 58.517L8.00193 58.5513C8.00064 58.7007 8 58.8503 8 59C8 59.1497 8.00064 59.2993 8.00193 59.4487L4.00207 59.483L0.00222126 59.5174C0.000741425 59.3451 0 59.1726 0 59ZM0.374276 65.6826C0.335856 65.3418 0.300339 65.0001 0.267751 64.6576L4.24977 64.2788L8.23179 63.8999C8.25998 64.1962 8.2907 64.4917 8.32392 64.7864L4.3491 65.2345L0.374276 65.6826ZM5.09388 69.9728L1.17337 70.7662C1.24166 71.1037 1.31284 71.4401 1.38687 71.7755L5.29283 70.9132L9.19879 70.051C9.13486 69.7614 9.07339 69.4708 9.0144 69.1794L5.09388 69.9728ZM6.53102 75.5452L2.71583 76.747C2.81921 77.0752 2.92538 77.4022 3.03432 77.7279L6.82774 76.459L10.6212 75.1902C10.5271 74.909 10.4355 74.6267 10.3462 74.3434L6.53102 75.5452ZM8.54727 80.9356L4.87985 82.5324C5.01705 82.8475 5.15692 83.1612 5.29943 83.4734L8.93825 81.8124L12.5771 80.1514C12.454 79.8817 12.3332 79.6108 12.2147 79.3387L8.54727 80.9356ZM11.1195 86.085L7.63992 88.0578C7.80929 88.3566 7.9812 88.6537 8.1556 88.9491L11.6002 86.9157L15.0448 84.8824C14.8941 84.627 14.7455 84.3702 14.5991 84.1121L11.1195 86.085ZM14.2177 90.9382L10.9631 93.2637C11.1627 93.543 11.3647 93.8205 11.5689 94.0961L14.7825 91.7143L17.9961 89.3326C17.8194 89.0942 17.6448 88.8542 17.4722 88.6126L14.2177 90.9382ZM17.8058 95.4432L14.8109 98.0948C15.0385 98.3518 15.2682 98.6068 15.5002 98.8598L18.4486 96.1567L21.397 93.4536C21.1963 93.2347 20.9975 93.014 20.8006 92.7916L17.8058 95.4432ZM21.8433 99.5514L19.1402 102.5C19.3932 102.732 19.6482 102.962 19.9052 103.189L22.5568 100.194L25.2084 97.1994C24.986 97.0025 24.7653 96.8037 24.5464 96.603L21.8433 99.5514ZM26.2857 103.217L23.9039 106.431C24.1795 106.635 24.457 106.837 24.7363 107.037L27.0618 103.782L29.3874 100.528C29.1458 100.355 28.9058 100.181 28.6675 100.004L26.2857 103.217ZM31.0843 106.4L29.0509 109.844C29.3463 110.019 29.6434 110.191 29.9422 110.36L31.915 106.88L33.8879 103.401C33.6298 103.254 33.373 103.106 33.1176 102.955L31.0843 106.4ZM36.1876 109.062L34.5266 112.701C34.8388 112.843 35.1525 112.983 35.4676 113.12L37.0644 109.453L38.6613 105.785C38.3892 105.667 38.1183 105.546 37.8487 105.423L36.1876 109.062ZM41.541 111.172L40.2722 114.966C40.5978 115.075 40.9248 115.181 41.253 115.284L42.4548 111.469L43.6566 107.654C43.3733 107.565 43.091 107.473 42.8098 107.379L41.541 111.172ZM47.0868 112.707L46.2245 116.613C46.5599 116.687 46.8963 116.758 47.2338 116.827L48.0272 112.906L48.8206 108.986C48.5292 108.927 48.2386 108.865 47.949 108.801L47.0868 112.707ZM52.7655 113.651L52.3174 117.626C52.6582 117.664 52.9999 117.7 53.3424 117.732L53.7212 113.75L54.1001 109.768C53.8038 109.74 53.5083 109.709 53.2136 109.676L52.7655 113.651ZM58.517 113.998L58.4826 117.998C58.6549 117.999 58.8274 118 59 118C59.1726 118 59.3451 117.999 59.5174 117.998L59.483 113.998L59.4487 109.998C59.2993 109.999 59.1497 110 59 110C58.8503 110 58.7007 109.999 58.5513 109.998L58.517 113.998ZM64.2788 113.75L64.6576 117.732C65.0001 117.7 65.3418 117.664 65.6826 117.626L65.2345 113.651L64.7864 109.676C64.4917 109.709 64.1962 109.74 63.8999 109.768L64.2788 113.75ZM69.9728 112.906L70.7662 116.827C71.1037 116.758 71.4401 116.687 71.7755 116.613L70.9132 112.707L70.051 108.801C69.7614 108.865 69.4708 108.927 69.1794 108.986L69.9728 112.906ZM77.7279 114.966C77.4022 115.075 77.0752 115.181 76.747 115.284L75.5452 111.469L74.3434 107.654C74.6267 107.565 74.909 107.473 75.1902 107.379L76.459 111.172L77.7279 114.966ZM80.9356 109.453L82.5324 113.12C82.8475 112.983 83.1612 112.843 83.4734 112.701L81.8124 109.062L80.1514 105.423C79.8817 105.546 79.6108 105.667 79.3387 105.785L80.9356 109.453ZM86.085 106.88L88.0578 110.36C88.3566 110.191 88.6537 110.019 88.9491 109.844L86.9157 106.4L84.8824 102.955C84.627 103.106 84.3702 103.254 84.1121 103.401L86.085 106.88ZM90.9382 103.782L93.2637 107.037C93.543 106.837 93.8205 106.635 94.0961 106.431L91.7143 103.217L89.3326 100.004C89.0942 100.181 88.8542 100.355 88.6126 100.528L90.9382 103.782ZM95.4432 100.194L98.0948 103.189C98.3518 102.962 98.6068 102.732 98.8598 102.5L96.1567 99.5514L93.4536 96.603C93.2347 96.8037 93.014 97.0025 92.7916 97.1994L95.4432 100.194ZM99.5514 96.1567L102.5 98.8598C102.732 98.6068 102.962 98.3518 103.189 98.0948L100.194 95.4432L97.1994 92.7916C97.0025 93.014 96.8037 93.2347 96.603 93.4536L99.5514 96.1567ZM103.217 91.7143L106.431 94.0961C106.635 93.8205 106.837 93.543 107.037 93.2637L103.782 90.9382L100.528 88.6126C100.355 88.8542 100.181 89.0942 100.004 89.3325L103.217 91.7143ZM106.4 86.9157L109.844 88.9491C110.019 88.6537 110.191 88.3566 110.36 88.0578L106.88 86.085L103.401 84.1121C103.254 84.3702 103.106 84.627 102.955 84.8824L106.4 86.9157ZM113.12 82.5324C112.983 82.8475 112.843 83.1612 112.701 83.4734L109.062 81.8124L105.423 80.1513C105.546 79.8817 105.667 79.6108 105.785 79.3387L109.453 80.9356L113.12 82.5324ZM111.172 76.459L114.966 77.7278C115.075 77.4022 115.181 77.0752 115.284 76.747L111.469 75.5452L107.654 74.3434C107.565 74.6267 107.473 74.909 107.379 75.1902L111.172 76.459ZM112.707 70.9132L116.613 71.7755C116.687 71.4401 116.758 71.1037 116.827 70.7662L112.906 69.9728L108.986 69.1794C108.927 69.4708 108.865 69.7614 108.801 70.051L112.707 70.9132ZM113.651 65.2345L117.626 65.6826C117.664 65.3418 117.7 65.0001 117.732 64.6576L113.75 64.2788L109.768 63.8999C109.74 64.1962 109.709 64.4917 109.676 64.7864L113.651 65.2345ZM113.948 56.604L117.944 56.429C117.936 56.2569 117.928 56.0846 117.919 55.9122C117.91 55.7398 117.9 55.5676 117.89 55.3957L113.897 55.6393L109.905 55.8829C109.914 56.0321 109.922 56.1814 109.93 56.3309C109.938 56.4804 109.945 56.6298 109.952 56.779L113.948 56.604ZM113.399 50.8631L117.356 50.2764C117.305 49.936 117.252 49.5966 117.196 49.2583L113.25 49.9138L109.304 50.5693C109.352 50.8619 109.398 51.1554 109.442 51.4498L113.399 50.8631ZM112.258 45.221L116.131 44.2235C116.046 43.8901 115.957 43.5578 115.865 43.2268L112.01 44.2923L108.154 45.3578C108.233 45.6437 108.31 45.9306 108.384 46.2186L112.258 45.221ZM113.909 37.3688C114.035 37.6884 114.158 38.0093 114.278 38.3316L110.531 39.7314L106.784 41.1313C106.68 40.853 106.574 40.5759 106.465 40.3001L110.187 38.8345L113.909 37.3688ZM108.235 34.454L111.814 32.6674C111.661 32.3599 111.505 32.054 111.346 31.7497L107.799 33.5989L104.252 35.4481C104.389 35.7109 104.524 35.9751 104.657 36.2407L108.235 34.454ZM105.397 29.4463L108.769 27.294C108.584 27.0046 108.397 26.7169 108.207 26.431L104.874 28.6418L101.54 30.8527C101.704 31.0998 101.866 31.3485 102.026 31.5986L105.397 29.4463ZM102.049 24.7619L105.178 22.2692C104.964 22.0007 104.748 21.7342 104.529 21.4697L101.445 24.0164L98.3601 26.5631C98.549 26.7919 98.736 27.0224 98.921 27.2546L102.049 24.7619ZM98.2304 20.4508L101.082 17.6461C100.842 17.4014 100.599 17.1587 100.354 16.9182L97.5511 19.772L94.7482 22.6257C94.9601 22.8338 95.1702 23.0437 95.3784 23.2555L98.2304 20.4508ZM93.9834 16.5595L96.5285 13.4737C96.2637 13.2553 95.997 13.0392 95.7284 12.8254L93.2372 15.9549L90.746 19.0845C90.9784 19.2694 91.2091 19.4564 91.4382 19.6454L93.9834 16.5595ZM89.3552 13.131L91.5656 9.79718C91.2796 9.60759 90.9919 9.42045 90.7026 9.23577L88.5506 12.6075L86.3985 15.9793C86.6488 16.139 86.8976 16.3009 87.1449 16.4648L89.3552 13.131ZM84.3967 10.2042L86.247 6.65789C85.9428 6.49918 85.6371 6.34307 85.3299 6.18956L83.5419 9.76766L81.7538 13.3458C82.0192 13.4784 82.2834 13.6133 82.5463 13.7505L84.3967 10.2042ZM79.161 7.81297L80.6293 4.09221C80.31 3.96623 79.9895 3.84297 79.6676 3.72245L78.2649 7.46842L76.8621 11.2144C77.1401 11.3185 77.4169 11.4249 77.6927 11.5337L79.161 7.81297ZM73.7045 5.98553L74.773 2.1309C74.4421 2.03916 74.1101 1.95024 73.7769 1.86418L72.7764 5.73703L71.7759 9.60989C72.0635 9.68419 72.3502 9.76095 72.6359 9.84015L73.7045 5.98553ZM68.086 4.74297L68.7426 0.797232C68.4038 0.740854 68.0641 0.687382 67.7236 0.63684L67.1364 4.59351L66.5492 8.55018C66.8434 8.59384 67.1368 8.64002 67.4293 8.6887L68.086 4.74297ZM62.3657 4.09773L62.6051 0.1049C62.2628 0.084369 61.9197 0.0667835 61.5759 0.052167L61.406 4.04856L61.2361 8.04495C61.5335 8.05759 61.8302 8.0728 62.1262 8.09055L62.3657 4.09773ZM56.6039 4.05219L56.4289 0.0560205C56.2567 0.0635593 56.0845 0.0718448 55.9121 0.0808798C55.7397 0.0899146 55.5675 0.099681 55.3955 0.110175L55.6392 4.10275L55.8828 8.09532C56.0319 8.08622 56.1812 8.07775 56.3308 8.06992C56.4803 8.06208 56.6297 8.0549 56.7789 8.04836L56.6039 4.05219ZM49.2582 0.804385C49.5965 0.748181 49.9359 0.694831 50.2762 0.64436L50.8629 4.6011L51.4497 8.55783C51.1552 8.60149 50.8617 8.64763 50.5692 8.69623L49.9137 4.75031L49.2582 0.804385ZM45.2209 5.74206L44.2234 1.86843C43.89 1.9543 43.5577 2.04299 43.2267 2.13447L44.2922 5.98995L45.3577 9.84543C45.6435 9.76643 45.9305 9.68984 46.2184 9.61568L45.2209 5.74206ZM39.7313 7.46886L38.3315 3.7218C38.0092 3.84221 37.6882 3.96535 37.3687 4.09118L38.8343 7.813L40.2999 11.5348C40.5758 11.4262 40.8529 11.3199 41.1311 11.2159L39.7313 7.46886ZM34.4539 9.76446L32.6673 6.18564C32.3598 6.33914 32.0539 6.49523 31.7495 6.65389L33.5987 10.2008L35.4479 13.7477C35.7108 13.6107 35.975 13.4758 36.2405 13.3433L34.4539 9.76446ZM29.4462 12.6027L27.2939 9.2311C27.0044 9.41588 26.7167 9.60309 26.4308 9.79272L28.6417 13.1262L30.8526 16.4597C31.0997 16.2958 31.3483 16.134 31.5985 15.9743L29.4462 12.6027ZM24.7617 15.9506L22.2691 12.8222C22.0006 13.0361 21.7341 13.2523 21.4695 13.4708L24.0162 16.5553L26.5629 19.6398C26.7917 19.4509 27.0223 19.2639 27.2544 19.0789L24.7617 15.9506ZM20.4507 19.7695L17.646 16.9176C17.4012 17.1582 17.1586 17.401 16.9181 17.6459L19.7718 20.4488L22.6256 23.2517C22.8336 23.0398 23.0436 22.8298 23.2553 22.6215L20.4507 19.7695ZM16.5594 24.0166L13.4736 21.4714C13.2552 21.7362 13.0391 22.0029 12.8253 22.2715L15.9548 24.7627L19.0843 27.2539C19.2693 27.0215 19.4563 26.7908 19.6452 26.5617L16.5594 24.0166ZM13.1309 28.6447L9.79704 26.4344C9.60745 26.7203 9.42031 27.008 9.23563 27.2973L12.6074 29.4493L15.9792 31.6014C16.1389 31.3511 16.3007 31.1023 16.4647 30.855L13.1309 28.6447ZM10.2041 33.6033L6.65775 31.7529C6.49904 32.0571 6.34293 32.3628 6.18942 32.67L9.76752 34.4581L13.3456 36.2461C13.4783 35.9807 13.6132 35.7165 13.7504 35.4536L10.2041 33.6033ZM7.81283 38.8389L4.09207 37.3706C3.96609 37.6899 3.84283 38.0104 3.72231 38.3323L7.46828 39.735L11.2142 41.1378C11.3183 40.8598 11.4248 40.583 11.5336 40.3073L7.81283 38.8389ZM5.98539 44.2954L2.13076 43.2269C2.03902 43.5578 1.9501 43.8899 1.86404 44.223L5.7369 45.2235L9.60975 46.224C9.68405 45.9364 9.76081 45.6497 9.84002 45.364L5.98539 44.2954ZM4.74283 49.9139L0.797094 49.2573C0.740716 49.5961 0.687243 49.9358 0.636701 50.2764L4.59337 50.8635L8.55005 51.4507C8.5937 51.1565 8.63988 50.8631 8.68856 50.5706L4.74283 49.9139ZM4.09759 55.6342L0.104762 55.3948C0.0842306 55.7371 0.0666449 56.0802 0.0520286 56.424L4.04842 56.5939L8.04481 56.7638C8.05745 56.4664 8.07266 56.1697 8.09041 55.8737L4.09759 55.6342ZM0.0807413 62.0878C0.0717063 61.9154 0.0634207 61.7432 0.055882 61.5711L4.05205 61.396L8.04822 61.221C8.05476 61.3703 8.06194 61.5196 8.06978 61.6692C8.07761 61.8187 8.08608 61.968 8.09518 62.1171L4.10261 62.3607L0.110037 62.6044C0.0995424 62.4324 0.0897761 62.2602 0.0807413 62.0878ZM0.804247 68.7417C0.748043 68.4034 0.694692 68.064 0.644221 67.7237L4.60096 67.137L8.55769 66.5502C8.60135 66.8447 8.64749 67.1382 8.69609 67.4307L4.75017 68.0862L0.804247 68.7417ZM5.74192 72.779L1.86829 73.7765C1.95416 74.11 2.04285 74.4422 2.13433 74.7732L5.98981 73.7077L9.84529 72.6423C9.76629 72.3564 9.6897 72.0695 9.61554 71.7815L5.74192 72.779ZM7.46872 78.2686L3.72166 79.6684C3.84207 79.9908 3.96521 80.3117 4.09104 80.6312L7.81286 79.1656L11.5347 77.7C11.426 77.4241 11.3197 77.147 11.2158 76.8688L7.46872 78.2686ZM9.76432 83.546L6.1855 85.3326C6.339 85.6401 6.49509 85.946 6.65375 86.2504L10.2006 84.4012L13.7475 82.552C13.6105 82.2891 13.4757 82.0249 13.3431 81.7594L9.76432 83.546ZM12.6026 88.5537L9.23096 90.706C9.41574 90.9955 9.60295 91.2832 9.79258 91.5691L13.1261 89.3582L16.4595 87.1474C16.2956 86.9002 16.1338 86.6516 15.9741 86.4014L12.6026 88.5537ZM15.9504 93.2382L12.8221 95.7309C13.036 95.9993 13.2522 96.2658 13.4706 96.5304L16.5551 93.9837L19.6397 91.437C19.4507 91.2082 19.2638 90.9777 19.0788 90.7455L15.9504 93.2382ZM19.7694 97.5492L16.9174 100.354C17.1581 100.599 17.4009 100.841 17.6458 101.082L20.4487 98.2281L23.2515 95.3744C23.0397 95.1663 22.8296 94.9563 22.6214 94.7446L19.7694 97.5492ZM24.0164 101.441L21.4713 104.526C21.7361 104.745 22.0028 104.961 22.2713 105.175L24.7625 102.045L27.2537 98.9156C27.0214 98.7306 26.7906 98.5436 26.5615 98.3547L24.0164 101.441ZM28.6446 104.869L26.4342 108.203C26.7202 108.392 27.0078 108.58 27.2972 108.764L29.4492 105.393L31.6012 102.021C31.351 101.861 31.1022 101.699 30.8549 101.535L28.6446 104.869ZM33.6031 107.796L31.7528 111.342C32.057 111.501 32.3627 111.657 32.6698 111.81L34.4579 108.232L36.246 104.654C35.9805 104.522 35.7163 104.387 35.4534 104.25L33.6031 107.796ZM38.8388 110.187L37.3705 113.908C37.6897 114.034 38.0103 114.157 38.3321 114.278L39.7349 110.532L41.1376 106.786C40.8597 106.682 40.5828 106.575 40.3071 106.466L38.8388 110.187ZM44.2953 112.015L43.2267 115.869C43.5577 115.961 43.8897 116.05 44.2229 116.136L45.2234 112.263L46.2238 108.39C45.9362 108.316 45.6496 108.239 45.3639 108.16L44.2953 112.015ZM49.9138 113.257L49.2572 117.203C49.5959 117.259 49.9356 117.313 50.2762 117.363L50.8634 113.407L51.4505 109.45C51.1564 109.406 50.863 109.36 50.5705 109.311L49.9138 113.257ZM55.6341 113.902L55.3946 117.895C55.737 117.916 56.0801 117.933 56.4238 117.948L56.5938 113.951L56.7637 109.955C56.4663 109.942 56.1696 109.927 55.8736 109.909L55.6341 113.902ZM61.3959 113.948L61.5709 117.944C61.743 117.936 61.9153 117.928 62.0877 117.919C62.2601 117.91 62.4323 117.9 62.6043 117.89L62.3606 113.897L62.117 109.905C61.9679 109.914 61.8185 109.922 61.669 109.93C61.5195 109.938 61.3701 109.945 61.2209 109.952L61.3959 113.948ZM67.1368 113.399L67.7235 117.356C68.0639 117.305 68.4033 117.252 68.7416 117.196L68.0861 113.25L67.4306 109.304C67.138 109.352 66.8445 109.399 66.5501 109.442L67.1368 113.399ZM72.7789 112.258L73.7764 116.132C74.1098 116.046 74.4421 115.957 74.7731 115.866L73.7076 112.01L72.6421 108.155C72.3563 108.234 72.0693 108.31 71.7813 108.384L72.7789 112.258ZM80.6311 113.909C80.3116 114.035 79.9906 114.158 79.6683 114.278L78.2685 110.531L76.8686 106.784C77.1469 106.68 77.424 106.574 77.6998 106.465L79.1655 110.187L80.6311 113.909ZM83.5459 108.236L85.3325 111.814C85.64 111.661 85.9459 111.505 86.2502 111.346L84.401 107.799L82.5518 104.252C82.289 104.389 82.0248 104.524 81.7593 104.657L83.5459 108.236ZM88.5536 105.397L90.7059 108.769C90.9953 108.584 91.283 108.397 91.569 108.207L89.3581 104.874L87.1472 101.54C86.9001 101.704 86.6514 101.866 86.4013 102.026L88.5536 105.397ZM93.238 102.049L95.7307 105.178C95.9992 104.964 96.2657 104.748 96.5303 104.529L93.9836 101.445L91.4368 98.3602C91.208 98.5492 90.9775 98.7361 90.7454 98.9211L93.238 102.049ZM97.5491 98.2305L100.354 101.082C100.599 100.842 100.841 100.599 101.082 100.354L98.228 97.5512L95.3742 94.7484C95.1661 94.9602 94.9562 95.1703 94.7444 95.3785L97.5491 98.2305ZM101.44 93.9835L104.526 96.5286C104.745 96.2638 104.961 95.9971 105.174 95.7286L102.045 93.2374L98.9155 90.7462C98.7305 90.9785 98.5435 91.2093 98.3545 91.4384L101.44 93.9835ZM104.869 89.3554L108.203 91.5657C108.392 91.2797 108.579 90.9921 108.764 90.7027L105.392 88.5507L102.021 86.3987C101.861 86.6489 101.699 86.8977 101.535 87.145L104.869 89.3554ZM107.796 84.3968L111.342 86.2471C111.501 85.9429 111.657 85.6372 111.81 85.3301L108.232 83.542L104.654 81.7539C104.521 82.0194 104.387 82.2836 104.249 82.5465L107.796 84.3968ZM114.277 79.6678C114.157 79.9896 114.034 80.3102 113.908 80.6294L110.187 79.1611L106.466 77.6928C106.575 77.4171 106.681 77.1402 106.786 76.8623L110.531 78.265L114.277 79.6678ZM112.014 73.7046L115.869 74.7732C115.961 74.4423 116.05 74.1102 116.136 73.7771L112.263 72.7766L108.39 71.7761C108.316 72.0637 108.239 72.3503 108.16 72.6361L112.014 73.7046ZM113.257 68.0861L117.203 68.7427C117.259 68.404 117.313 68.0643 117.363 67.7237L113.406 67.1365L109.45 66.5494C109.406 66.8435 109.36 67.1369 109.311 67.4295L113.257 68.0861ZM113.902 62.3658L117.895 62.6053C117.916 62.2629 117.933 61.9198 117.948 61.5761L113.951 61.4061L109.955 61.2362C109.942 61.5336 109.927 61.8303 109.909 62.1264L113.902 62.3658Z" fill="white" fill-opacity="0.5"/>
<circle cx="59" cy="59" r="55" stroke="white" stroke-width="8" stroke-miterlimit="3.8637" stroke-dasharray="1 30"/>
<path d="M62.0028 10.2727V19H60.7926L56.3565 12.5994H56.2756V19H54.9588V10.2727H56.1776L60.6179 16.6818H60.6989V10.2727H62.0028Z" fill="white" fill-opacity="0.7"/>
<path d="M59.7188 98.5653C59.6733 98.1619 59.4858 97.8494 59.1562 97.6278C58.8267 97.4034 58.4119 97.2912 57.9119 97.2912C57.554 97.2912 57.2443 97.348 56.983 97.4616C56.7216 97.5724 56.5185 97.7259 56.3736 97.9219C56.2315 98.1151 56.1605 98.3352 56.1605 98.5824C56.1605 98.7898 56.2088 98.9687 56.3054 99.1193C56.4048 99.2699 56.5341 99.3963 56.6932 99.4986C56.8551 99.598 57.0284 99.6818 57.2131 99.75C57.3977 99.8153 57.5753 99.8693 57.7457 99.9119L58.598 100.134C58.8764 100.202 59.1619 100.294 59.4545 100.411C59.7472 100.527 60.0185 100.68 60.2685 100.871C60.5185 101.061 60.7202 101.297 60.8736 101.578C61.0298 101.859 61.108 102.196 61.108 102.588C61.108 103.082 60.9801 103.521 60.7244 103.905C60.4716 104.288 60.1037 104.591 59.6207 104.812C59.1406 105.034 58.5597 105.145 57.8778 105.145C57.2244 105.145 56.6591 105.041 56.1818 104.834C55.7045 104.626 55.331 104.332 55.0611 103.952C54.7912 103.568 54.642 103.114 54.6136 102.588H55.9347C55.9602 102.903 56.0625 103.166 56.2415 103.376C56.4233 103.584 56.6548 103.739 56.9361 103.841C57.2202 103.94 57.5312 103.99 57.8693 103.99C58.2415 103.99 58.5724 103.932 58.8622 103.815C59.1548 103.696 59.3849 103.531 59.5526 103.321C59.7202 103.108 59.804 102.859 59.804 102.575C59.804 102.317 59.7301 102.105 59.5824 101.94C59.4375 101.776 59.2401 101.639 58.9901 101.531C58.7429 101.423 58.4631 101.328 58.1506 101.246L57.1193 100.964C56.4205 100.774 55.8665 100.494 55.4574 100.125C55.0511 99.7557 54.848 99.267 54.848 98.6591C54.848 98.1562 54.9844 97.7173 55.2571 97.3423C55.5298 96.9673 55.8991 96.6761 56.3651 96.4688C56.831 96.2585 57.3565 96.1534 57.9418 96.1534C58.5327 96.1534 59.054 96.2571 59.5057 96.4645C59.9602 96.6719 60.3182 96.9574 60.5795 97.321C60.8409 97.6818 60.9773 98.0966 60.9886 98.5653H59.7188Z" fill="white" fill-opacity="0.7"/>
<path d="M12.9542 62L10.5338 53.2727H11.9187L13.619 60.0312H13.7L15.4684 53.2727H16.8406L18.6091 60.0355H18.69L20.3861 53.2727H21.7753L19.3505 62H18.0253L16.1886 55.4631H16.1204L14.2838 62H12.9542Z" fill="white" fill-opacity="0.7"/>
<path d="M99.2454 62V53.2727H104.717V54.4062H100.562V57.0653H104.432V58.1946H100.562V60.8665H104.768V62H99.2454Z" fill="white" fill-opacity="0.7"/>
</svg>
